# xmcd
#
# Track frame offsets: 
#        150
#        10908
#        21820
#        32119
#        43844
#        54242
#        63744
#        74412
#        86041
#        95405
#        108317
#        117701
#        127884
#        140993
#        151747
#        160740
#        169778
#        178814
#        189107
#        200725
#        210983
#        220021
#        230889
#        237067
#        246943
#        256029
#        268498
#        281211
#        292442
#        303635
#        315514
#        322733
#        332768
#        340941
#        349958
#
# Disc length: 4842 seconds
#
# Revision: 1
# Processed by: cddbd v1.5.2PL0 Copyright (c) Steve Scherf et al.
# Submitted via: ExactAudioCopyFreeDBPlugin 1.0
#
DISCID=1d12e823
DTITLE=Eddie Noack - Gentlemen Prefer Blondes [CD3]
DYEAR=2012
DGENRE=Country
TTITLE0=Can't Play Hookey
TTITLE1=My Steady Dream
TTITLE2=Wonderin' Oakie
TTITLE3=Have Blues - Will Travel
TTITLE4=The Price Of Love
TTITLE5=Relief Is Just A Swallow Away
TTITLE6=It's Hard To Tell An Old Love Goodbye
TTITLE7=Love's Other Face
TTITLE8=I Don't Live There Anymore
TTITLE9=Walk 'Em Off
TTITLE10=The Man On The Wall
TTITLE11=Shake Hands With The Blues (1)
TTITLE12=A Million Friends But No Sweetheart
TTITLE13=Don't Look Behind
TTITLE14=A Thinkin' Man's Woman (A Lovin' Man's Girl)
TTITLE15=Shake Hands With The Blues (2)
TTITLE16=Sunflower Song
TTITLE17=Too Weak To Go
TTITLE18=Firewater Luke
TTITLE19=The Price Of Love (alt)
TTITLE20=The Same Old Mistakes (demo)
TTITLE21=Invisible Stripes (demo)
TTITLE22=So Funny I Could Cry (demo)
TTITLE23=Shotgun House (demo)
TTITLE24=I Slipped Out Of Heaven
TTITLE25=Firewater Luke
TTITLE26=Invisible Stripes
TTITLE27=The Same Old Mistakes
TTITLE28=Shotgun House
TTITLE29=Where Do You Go (When You Say Goodnight)
TTITLE30=Love Is For Fools (demo)
TTITLE31=The Life You've Lived (demo)
TTITLE32=I Speak Your Name (demo)
TTITLE33=The Same Old Mistakes (demo)
TTITLE34=You've Got A Woman (demo)
EXTD=
EXTT0=
EXTT1=
EXTT2=
EXTT3=
EXTT4=
EXTT5=
EXTT6=
EXTT7=
EXTT8=
EXTT9=
EXTT10=
EXTT11=
EXTT12=
EXTT13=
EXTT14=
EXTT15=
EXTT16=
EXTT17=
EXTT18=
EXTT19=
EXTT20=
EXTT21=
EXTT22=
EXTT23=
EXTT24=
EXTT25=
EXTT26=
EXTT27=
EXTT28=
EXTT29=
EXTT30=
EXTT31=
EXTT32=
EXTT33=
EXTT34=
PLAYORDER=
